<?xml version="1.0" encoding="utf-8"?>
<!-- Generator: Adobe Illustrator 19.0.0, SVG Export Plug-In . SVG Version: 6.00 Build 0)  -->
<svg version="1.1" id="Layer_1" xmlns="http://www.w3.org/2000/svg" xmlns:xlink="http://www.w3.org/1999/xlink" x="0px" y="0px"
	 viewBox="0 0 153.8 67.5" style="enable-background:new 0 0 153.8 67.5;" xml:space="preserve">
<style type="text/css">
	.st0{fill:#FDC307;}
	.st1{fill:#029BAC;}
	.st2{fill:#FFFFFF;}
	.st3{fill:#28347D;}
</style>
<g>
	<path class="st0" d="M62.2,35.4l-1.8,2.1c-1.6,0.4-2.9,0.7-5.5,2.6c-1.2,0.9-6.4,3-7.7,8.7l0.2,1.9h23.1V6.7H34.8
		c0,0,8.4,3.6,10.1,4.4c1.8,0.8,2.6,1.4,4.6,2.8c1.9,1.4,11.1,9.5,12.1,14.1c0.6,2.8,1.1,4.1,1.4,5.5L62.2,35.4z"/>
</g>
<rect x="75.4" y="43.8" class="st1" width="75.5" height="7"/>
<g>
	<path class="st2" d="M77.2,49.8v-4.9h0.7l1.6,2.5c0.4,0.6,0.7,1.1,0.9,1.6l0,0c-0.1-0.7-0.1-1.2-0.1-2v-2H81v4.9h-0.7l-1.6-2.5
		c-0.4-0.5-0.7-1.1-0.9-1.6l0,0c0,0.6,0,1.2,0,2v2.1H77.2z"/>
	<path class="st2" d="M84.3,49.4c0.6,0,1.1-0.6,1.1-1.4c0-0.6-0.3-1.3-1.1-1.3c-0.8,0-1.1,0.7-1.1,1.4
		C83.2,48.8,83.6,49.4,84.3,49.4L84.3,49.4z M84.3,49.9c-1,0-1.8-0.7-1.8-1.8c0-1.2,0.8-1.9,1.8-1.9c1.1,0,1.8,0.7,1.8,1.8
		C86.1,49.3,85.1,49.9,84.3,49.9L84.3,49.9z"/>
	<path class="st2" d="M90.7,48.9c0,0.4,0,0.7,0,1h-0.6l0-0.6h0c-0.2,0.3-0.6,0.6-1.2,0.6c-0.6,0-1.3-0.3-1.3-1.5v-2h0.7v1.9
		c0,0.7,0.2,1.1,0.8,1.1c0.4,0,0.8-0.3,0.9-0.6c0-0.1,0.1-0.2,0.1-0.3v-2.1h0.7V48.9z"/>
	<path class="st2" d="M92.7,46.3l0.7,2c0.1,0.3,0.2,0.6,0.3,0.9h0c0.1-0.3,0.2-0.6,0.3-0.9l0.7-2h0.7L94,49.8h-0.6l-1.4-3.5H92.7z"
		/>
	<path class="st2" d="M98.9,47.7c0-0.4-0.2-1-0.9-1c-0.7,0-1,0.6-1,1H98.9z M97,48.2c0,0.9,0.6,1.2,1.3,1.2c0.5,0,0.8-0.1,1-0.2
		l0.1,0.4c-0.2,0.1-0.6,0.2-1.2,0.2c-1.1,0-1.8-0.7-1.8-1.8c0-1.1,0.7-1.9,1.7-1.9c1.2,0,1.5,1,1.5,1.7c0,0.1,0,0.2,0,0.3L97,48.2z"
		/>
</g>
<rect x="101.1" y="44.7" class="st2" width="0.7" height="5.1"/>
<rect x="103.5" y="44.7" class="st2" width="0.7" height="5.1"/>
<g>
	<path class="st2" d="M108.2,47.7c0-0.4-0.2-1-0.9-1c-0.7,0-1,0.6-1,1H108.2z M106.3,48.2c0,0.9,0.6,1.2,1.3,1.2
		c0.5,0,0.8-0.1,1-0.2l0.1,0.4c-0.2,0.1-0.6,0.2-1.2,0.2c-1.1,0-1.8-0.7-1.8-1.8c0-1.1,0.7-1.9,1.7-1.9c1.2,0,1.5,1,1.5,1.7
		c0,0.1,0,0.2,0,0.3L106.3,48.2z"/>
</g>
<rect x="110" y="47.6" class="st2" width="1.9" height="0.5"/>
<g>
	<path class="st2" d="M116.9,49.7c-0.2,0.1-0.7,0.2-1.4,0.2c-1.4,0-2.5-0.9-2.5-2.5c0-1.5,1.1-2.6,2.7-2.6c0.6,0,1,0.1,1.2,0.2
		l-0.2,0.5c-0.2-0.1-0.6-0.2-1-0.2c-1.2,0-2,0.7-2,2c0,1.2,0.7,2,2,2c0.4,0,0.8-0.1,1.1-0.2L116.9,49.7z"/>
	<path class="st2" d="M120.2,48c-0.7,0-1.5,0.1-1.5,0.8c0,0.4,0.3,0.6,0.6,0.6c0.5,0,0.8-0.3,0.9-0.6c0-0.1,0-0.1,0-0.2V48z
		 M120.9,49c0,0.3,0,0.6,0.1,0.8h-0.6l-0.1-0.4h0c-0.2,0.3-0.6,0.5-1.1,0.5c-0.7,0-1.1-0.5-1.1-1c0-0.8,0.8-1.3,2.2-1.3v-0.1
		c0-0.3-0.1-0.8-0.8-0.8c-0.4,0-0.7,0.1-1,0.3l-0.2-0.4c0.3-0.2,0.8-0.3,1.2-0.3c1.1,0,1.4,0.7,1.4,1.4V49z"/>
</g>
<rect x="122.6" y="44.7" class="st2" width="0.7" height="5.1"/>
<path class="st2" d="M127.5,44.9l-0.9,1h-0.5l0.7-1H127.5z M127.4,47.7c0-0.4-0.2-1-0.9-1c-0.7,0-1,0.6-1,1H127.4z M125.4,48.2
	c0,0.9,0.6,1.2,1.2,1.2c0.5,0,0.8-0.1,1-0.2l0.1,0.4c-0.2,0.1-0.6,0.2-1.2,0.2c-1.1,0-1.8-0.7-1.8-1.8c0-1.1,0.7-1.9,1.7-1.9
	c1.2,0,1.5,1,1.5,1.7c0,0.1,0,0.2,0,0.3L125.4,48.2z"/>
<path class="st2" d="M132,47.7c0-0.1,0-0.2,0-0.3c-0.1-0.4-0.5-0.7-1-0.7c-0.7,0-1.1,0.6-1.1,1.3c0,0.7,0.4,1.3,1.1,1.3
	c0.4,0,0.9-0.3,1-0.8c0-0.1,0-0.2,0-0.3V47.7z M132.6,44.7v4.2c0,0.3,0,0.7,0,0.9h-0.6l0-0.6h0c-0.2,0.4-0.6,0.7-1.2,0.7
	c-0.9,0-1.6-0.7-1.6-1.8c0-1.2,0.8-1.9,1.6-1.9c0.6,0,0.9,0.3,1.1,0.5h0v-2.1H132.6z"/>
<path class="st2" d="M135.9,49.4c0.6,0,1.1-0.6,1.1-1.4c0-0.6-0.3-1.3-1.1-1.3c-0.8,0-1.1,0.7-1.1,1.4
	C134.8,48.8,135.3,49.4,135.9,49.4L135.9,49.4z M135.9,49.9c-1,0-1.8-0.7-1.8-1.8c0-1.2,0.8-1.9,1.8-1.9c1.1,0,1.8,0.7,1.8,1.8
	C137.7,49.3,136.8,49.9,135.9,49.9L135.9,49.9z"/>
<path class="st2" d="M139.2,47.3c0-0.4,0-0.7,0-0.9h0.6l0,0.6h0c0.2-0.3,0.6-0.6,1.2-0.6c0.5,0,1.3,0.3,1.3,1.5v2.1h-0.7v-2
	c0-0.6-0.2-1-0.8-1c-0.4,0-0.8,0.3-0.9,0.7c0,0.1,0,0.2,0,0.3v2.1h-0.7V47.3z"/>
<path class="st2" d="M144,46.3h0.7v3.5H144V46.3z M144.4,45.7c-0.2,0-0.4-0.2-0.4-0.4c0-0.2,0.2-0.4,0.4-0.4c0.3,0,0.4,0.2,0.4,0.4
	C144.8,45.5,144.6,45.7,144.4,45.7L144.4,45.7z"/>
<path class="st2" d="M148.8,47.7c0-0.4-0.2-1-0.9-1c-0.7,0-1,0.6-1,1H148.8z M146.8,48.2c0,0.9,0.6,1.2,1.3,1.2c0.5,0,0.8-0.1,1-0.2
	l0.1,0.4c-0.2,0.1-0.6,0.2-1.2,0.2c-1.1,0-1.8-0.7-1.8-1.8c0-1.1,0.7-1.9,1.7-1.9c1.2,0,1.5,1,1.5,1.7c0,0.1,0,0.2,0,0.3L146.8,48.2
	z"/>
<path class="st3" d="M116.5,23.3c-1.1,0-1.9,0-2.6-0.2V13c0.6-0.2,1.6-0.3,3.2-0.3c3.9,0,6.1,1.9,6.1,5
	C123.2,21.2,120.6,23.3,116.5,23.3 M91.8,35.8L91.8,35.8c-5.2,0-8.3-5-8.3-11.5c0-6.4,3-11.6,8.3-11.6c5.3,0,8.2,5.3,8.2,11.4
	C100.1,30.8,97.1,35.8,91.8,35.8 M116.7,6.8h-0.4h-10.1v8c-2.5-4.9-7.4-8.3-14.2-8.3c-10.1,0-16.7,7.7-16.7,18
	c0,9.8,6,17.4,16.1,17.4h0.1c6.7,0,12-3.1,14.7-8.5v7.9h7.7V29c0.7,0.2,1.6,0.2,2.6,0.2c4.6,0,8.5-1.2,11.2-3.6
	c2-1.9,3.1-4.7,3.1-8.1c0-1.5-0.3-3-0.8-4.3h3.9v28.1h7.7V13.2h9.3V6.8H116.7z"/>
<path class="st3" d="M48.4,13.2C37.3,4.5,22-0.6,7.1,4.3l0.3,6.4C17.1,7.1,35.7,7.3,48.4,13.2"/>
<path class="st3" d="M61.8,28.8c-1-7.2-6.3-12.3-13.4-15.6C54.2,17.7,58.9,23.2,61.8,28.8"/>
<path class="st3" d="M33.8,18.9C16,8.2,2.2,17,2.2,17l2.4,7.3C4.6,24.3,18.8,17.8,33.8,18.9"/>
<path class="st3" d="M22.2,34.9l4.1,3.1c0,0,2.3-6.1,9.3-7.8C28.4,27.8,22.2,34.9,22.2,34.9"/>
<path class="st3" d="M35,26.1c-13.1-8.4-23.7,1.5-23.7,1.5l3.1,4.7C14.4,32.3,22.5,23.1,35,26.1"/>
<path class="st3" d="M60.4,37.5c4.4-1.4,19.9,3.4,23.3,5.2C71.8,35,66.6,35.3,63,33.5C62.2,35.1,60.4,37.5,60.4,37.5"/>
<path class="st3" d="M54.6,28.6c-1.8-1-4.3,0.9-1.6,2.1c2.6,1.2,5,0.7,4.5,0.3C57,30.6,54.8,28.9,54.6,28.6"/>
<path class="st3" d="M43.8,49.2l4.7,3.9c-2.6-8.8,9.4-14.8,9.4-14.8C50.1,41.3,46.9,43.7,43.8,49.2"/>
<path class="st3" d="M150.9,57.9h-1.7v3.2c0,0.4,0,1,0.1,1.7h0l-2.6-4.9h-2.5v7.1h1.7v-3.2c0-0.4,0-1-0.1-1.8h0l2.6,5h2.5V57.9z
	 M143,57.9H141v7.1h1.9V57.9z M136.2,62.1c0.3-1.1,0.5-1.9,0.6-2.2c0.1-0.4,0.1-0.6,0.2-0.8c0,0.2,0.1,0.5,0.2,0.9
	c0.1,0.4,0.2,0.7,0.3,1l0.3,1.2H136.2z M140.6,64.9l-2.3-7.1h-2.5l-2.3,7.1h2.1l0.4-1.3h2.3l0.3,1.3H140.6z M129.8,64.9l1.4-5.1h0
	c0,0.8-0.1,1.2-0.1,1.4c0,0.2,0,0.4,0,0.5v3.1h1.8v-7.1h-2.5l-1.4,5h0l-1.5-5h-2.5v7.1h1.7v-3.1c0-0.5,0-1.2-0.1-2h0l1.4,5.1H129.8z
	 M120.8,63.4h-2.3v-1.3h2.1v-1.5h-2.1v-1.1h2.3v-1.5h-4.2v7.1h4.2V63.4z M113.3,62.9c-0.3,0.3-0.7,0.5-1.3,0.5h-0.4v-4h0.6
	c0.5,0,0.9,0.2,1.2,0.5c0.3,0.3,0.4,0.8,0.4,1.4C113.7,62,113.6,62.5,113.3,62.9 M114.7,58.7c-0.6-0.6-1.5-0.9-2.6-0.9h-2.4v7.1h2.3
	c1.2,0,2.1-0.3,2.7-1c0.7-0.6,1-1.5,1-2.7C115.7,60.2,115.4,59.3,114.7,58.7 M105.6,63.4h-2.3v-1.3h2.1v-1.5h-2.1v-1.1h2.3v-1.5
	h-4.2v7.1h4.2V63.4z M98.6,57.3c0.2-0.1,0.6-0.4,1-0.7c0.5-0.3,0.8-0.6,1.1-0.8v-0.1h-2.1c-0.1,0.1-0.2,0.3-0.3,0.4
	c-0.1,0.2-0.4,0.5-0.9,1v0.1H98.6z M100.5,63.4h-2.3v-1.3h2.1v-1.5h-2.1v-1.1h2.3v-1.5h-4.2v7.1h4.2V63.4z M93.9,59.4h1.7v-1.6h-5.4
	v1.6H92v5.5h1.9V59.4z M86.3,59.3h0.4c0.7,0,1,0.2,1,0.7c0,0.6-0.3,0.9-1,0.9h-0.4V59.3z M86.7,62.4l1.5,2.6h2.2l-2.1-3.1
	c0.8-0.4,1.2-1.1,1.2-1.9c0-1.4-1-2.1-2.9-2.1h-2.3v7.1h1.9v-2.6H86.7z M79.9,59.3c0.5,0,0.8,0.2,1.1,0.5c0.2,0.3,0.4,0.9,0.4,1.6
	c0,0.7-0.1,1.2-0.4,1.6c-0.2,0.3-0.6,0.5-1.1,0.5c-1,0-1.4-0.7-1.4-2C78.5,60,79,59.3,79.9,59.3 M82.5,58.7
	c-0.6-0.6-1.4-0.9-2.6-0.9c-1.1,0-2,0.3-2.6,0.9c-0.6,0.6-0.9,1.5-0.9,2.7c0,1.2,0.3,2.1,0.9,2.7c0.6,0.6,1.4,0.9,2.6,0.9
	c1.1,0,2-0.3,2.6-0.9c0.6-0.6,0.9-1.5,0.9-2.7C83.4,60.2,83.1,59.3,82.5,58.7 M72.7,59.4h0.5c0.5,0,0.8,0.2,0.8,0.7
	c0,0.3-0.1,0.5-0.3,0.7C73.6,61,73.3,61,73,61h-0.3V59.4z M75.2,58.5c-0.4-0.4-1.1-0.6-2-0.6h-2.4v7.1h1.9v-2.3h0.5
	c0.9,0,1.5-0.2,2-0.6c0.5-0.4,0.7-1,0.7-1.8C75.9,59.4,75.7,58.9,75.2,58.5 M64.7,57.3v-0.1l-0.3-0.3c-0.5-0.5-0.8-0.9-1-1.1h-2.1
	v0.1c0.3,0.2,0.7,0.5,1.1,0.8c0.4,0.3,0.8,0.5,1,0.7H64.7z M62.9,62.1c0.3-1.1,0.5-1.9,0.6-2.2c0.1-0.4,0.1-0.6,0.2-0.8
	c0,0.2,0.1,0.5,0.2,0.9c0.1,0.4,0.2,0.7,0.3,1l0.3,1.2H62.9z M67.2,64.9l-2.3-7.1h-2.5L60,64.9h2.1l0.4-1.3h2.3l0.3,1.3H67.2z
	 M56.8,63.4h-2.3v-1.3h2.1v-1.5h-2.1v-1.1h2.3v-1.5h-4.2v7.1h4.2V63.4z M49.2,62.9c-0.3,0.3-0.7,0.5-1.3,0.5h-0.4v-4h0.6
	c0.5,0,0.9,0.2,1.2,0.5c0.3,0.3,0.4,0.8,0.4,1.4C49.6,62,49.5,62.5,49.2,62.9 M50.7,58.7c-0.6-0.6-1.5-0.9-2.6-0.9h-2.4v7.1h2.3
	c1.2,0,2.1-0.3,2.7-1c0.6-0.6,1-1.5,1-2.7C51.6,60.2,51.3,59.3,50.7,58.7 M44.4,57.9h-1.7v3.2c0,0.4,0,1,0.1,1.7h0l-2.6-4.9h-2.5
	v7.1h1.7v-3.2c0-0.4,0-1-0.1-1.8h0l2.6,5h2.5V57.9z M33.2,59.3c0.5,0,0.8,0.2,1.1,0.5c0.2,0.3,0.4,0.9,0.4,1.6
	c0,0.7-0.1,1.2-0.4,1.6c-0.2,0.3-0.6,0.5-1.1,0.5c-1,0-1.4-0.7-1.4-2C31.8,60,32.3,59.3,33.2,59.3 M35.8,58.7
	c-0.6-0.6-1.4-0.9-2.6-0.9c-1.1,0-2,0.3-2.6,0.9c-0.6,0.6-0.9,1.5-0.9,2.7c0,1.2,0.3,2.1,0.9,2.7c0.6,0.6,1.4,0.9,2.6,0.9
	c1.1,0,2-0.3,2.6-0.9c0.6-0.6,0.9-1.5,0.9-2.7C36.7,60.2,36.4,59.3,35.8,58.7 M25.7,64.9l1.4-5.1h0c0,0.8-0.1,1.2-0.1,1.4
	c0,0.2,0,0.4,0,0.5v3.1h1.8v-7.1h-2.5l-1.4,5h0l-1.5-5h-2.5v7.1h1.7v-3.1c0-0.5,0-1.2-0.1-2h0l1.4,5.1H25.7z M16.7,63.4h-2.3v-1.3
	h2.1v-1.5h-2.1v-1.1h2.3v-1.5h-4.2v7.1h4.2V63.4z M11.7,64.9v-1.5H9v-5.5H7.1v7.1H11.7z"/>
</svg>
